<svg data-v-9b4592e8="" xmlns="http://www.w3.org/2000/svg" width="17" height="17" viewBox="0 0 17 17" fill="none"><path data-v-9b4592e8="" d="M14.2119 0L17 2.7881L14.8745 4.9145L12.0864 2.12639L14.2119 0ZM4 13H6.7881L13.5604 6.2277L10.7723 3.43959L4 10.2119V13Z" fill="#615E5E"></path> <path data-v-9b4592e8="" d="M14.2222 15.2222H4.58489C4.56178 15.2222 4.53778 15.2311 4.51467 15.2311C4.48533 15.2311 4.456 15.2231 4.42578 15.2222H1.77778V2.77778H7.864L9.64178 1H1.77778C0.797333 1 0 1.79644 0 2.77778V15.2222C0 16.2036 0.797333 17 1.77778 17H14.2222C14.6937 17 15.1459 16.8127 15.4793 16.4793C15.8127 16.1459 16 15.6937 16 15.2222V7.51733L14.2222 9.29511V15.2222Z" fill="#615E5E"></path></svg>